<?xml version="1.0" standalone="no"?>
<!DOCTYPE svg PUBLIC "-//W3C//DTD SVG 1.1//EN" "http://www.w3.org/Graphics/SVG/1.1/DTD/svg11.dtd" >
<svg>
<metadata>
Created by FontForge 20120731 at Thu May  5 01:54:12 2016
 By ,,,
copyright missing
</metadata>
<defs>
<font id="CothamSansIGVVersion-Regular" horiz-adv-x="600" >
  <font-face 
    font-family="Cotham Sans IGV Version"
    font-weight="400"
    font-stretch="normal"
    units-per-em="1000"
    panose-1="0 0 5 0 0 0 0 0 0 0"
    ascent="750"
    descent="-250"
    x-height="470"
    cap-height="740"
    bbox="-35 -250.593 1010 1010"
    underline-thickness="50"
    underline-position="-50"
    unicode-range="U+0020-2044"
  />
<missing-glyph horiz-adv-x="250" 
 />
    <glyph glyph-name=".notdef" horiz-adv-x="250" 
 />
    <glyph glyph-name=".null" horiz-adv-x="0" 
 />
    <glyph glyph-name="nonmarkingreturn" horiz-adv-x="333" 
 />
    <glyph glyph-name="space" unicode=" " horiz-adv-x="250" 
 />
    <glyph glyph-name="exclam" unicode="!" horiz-adv-x="319" 
d="M122 496v244h92v-244l-13 -276h-66zM97 68q0 34 21 56t53 22q34 0 56 -22t22 -56q0 -32 -22 -53t-56 -21q-31 0 -52.5 21t-21.5 53z" />
    <glyph glyph-name="ampersand" unicode="&#x26;" horiz-adv-x="833" 
d="M658 -1l-61 61q-86 -71 -228 -71q-102 0 -171 58.5t-69 143.5q0 65 34.5 109t99.5 91q-88 97 -88 180q0 73 51.5 127t133.5 54q70 0 119.5 -43.5t49.5 -112.5q0 -34 -10 -62t-33.5 -54.5t-43 -44t-57.5 -46.5q7 -7 20.5 -19.5t19.5 -18.5q28 -28 86 -88t83 -85
q30 53 30 109q0 60 -42 109q-26 32 -46 41l41 73q29 -6 65 -47q58 -68 58 -168q0 -96 -49 -174q67 -68 127 -121zM260 576q0 -56 72 -135q5 4 33 24t40.5 31.5t26.5 37.5t14 55q0 37 -25.5 60.5t-64.5 23.5q-42 0 -69 -29.5t-27 -67.5zM379 64q98 0 162 52l-139 141
q-3 3 -35.5 32.5t-50.5 46.5q-47 -34 -72 -64t-25 -72q0 -53 48.5 -94.5t111.5 -41.5z" />
    <glyph glyph-name="parenleft" unicode="(" horiz-adv-x="400" 
d="M160 278q0 -148 53 -284t105 -194l-94 -1q-26 35 -50.5 78t-52 104.5t-44 139.5t-16.5 157t16.5 157t44 139.5t52 104.5t50.5 78l94 -1q-52 -58 -105 -194t-53 -284z" />
    <glyph glyph-name="parenright" unicode=")" horiz-adv-x="400" 
d="M240 278q0 148 -53 284t-105 194l94 1q26 -35 50.5 -78t52 -104.5t44 -139.5t16.5 -157t-16.5 -157t-44 -139.5t-52 -104.5t-50.5 -78l-94 1q52 58 105 194t53 284z" />
    <glyph glyph-name="comma" unicode="," horiz-adv-x="228" 
d="M28 73q0 29 20.5 50t50.5 21q45 0 69 -33q19 -25 19 -63q0 -62 -31 -120q-30 -55 -84 -95l-38 43q8 7 20 19t32 45t21 60h-6q-36 0 -54.5 21.5t-18.5 51.5z" />
    <glyph glyph-name="hyphen" unicode="-" horiz-adv-x="425" 
d="M55 313h315v-83h-315v83z" />
    <glyph glyph-name="period" unicode="." horiz-adv-x="228" 
d="M25 68q0 34 21 56t53 22q34 0 56 -22t22 -56q0 -32 -22 -53t-56 -21q-31 0 -52.5 21t-21.5 53z" />
    <glyph glyph-name="slash" unicode="/" horiz-adv-x="444" 
d="M305 757h94l-260 -757h-94z" />
    <glyph glyph-name="zero" unicode="0" horiz-adv-x="672" 
d="M337 756q146 0 230 -99t84 -283q0 -185 -85.5 -284.5t-228.5 -99.5q-309 0 -309 384q0 184 82 283t227 99zM337 674q-211 0 -211 -300q0 -159 52.5 -230.5t158.5 -71.5q216 0 216 302q0 300 -216 300z" />
    <glyph glyph-name="one" unicode="1" horiz-adv-x="672" 
d="M92 83h196v488q-42 -42 -119 -42q-45 0 -73 16v61q9 -1 32 -1q59 0 108 32t52 109h89v-663h209v-83h-494v83z" />
    <glyph glyph-name="two" unicode="2" horiz-adv-x="672" 
d="M88 565q2 91 72.5 141t199.5 50q102 0 168.5 -58.5t66.5 -141.5q0 -47 -12 -84.5t-27 -60.5t-46 -46t-50.5 -33t-59.5 -30v1l-44 -20q-41 -19 -62 -30.5t-50 -32.5t-46.5 -48t-27.5 -62q-2 -9 -2 -23q73 0 223 -1t224 -1v-85h-551v8q0 43 1 64t7.5 51.5t19.5 59.5h-1
q46 95 227 175q45 20 73.5 35.5t58 38t43.5 50.5t14 63q0 46 -30 78t-65 44t-67 12q-68 0 -119 -31t-57 -99z" />
    <glyph glyph-name="three" unicode="3" horiz-adv-x="672" 
d="M147 196q8 -65 60 -98t115 -33q96 0 150 35.5t54 106.5q0 62 -50 101t-151 43h-16h-82v70h82q92 1 139 40.5t47 95.5q0 61 -54 91.5t-109 30.5q-43 0 -78.5 -11.5t-64 -42t-32.5 -76.5l-81 16q2 91 72.5 141t199.5 50q102 0 168.5 -54.5t66.5 -133.5q0 -120 -101 -177
q131 -55 131 -182q0 -100 -76.5 -160t-198.5 -60q-125 0 -197 50t-75 141z" />
    <glyph glyph-name="four" unicode="4" horiz-adv-x="672" 
d="M62 270q29 40 154 211t188 259h90v-470h124v-83h-124v-187h-90v187h-342v83zM404 623l-249 -353h249v353z" />
    <glyph glyph-name="five" unicode="5" horiz-adv-x="672" 
d="M127 746h432v-80h-357l-16 -206q73 43 151 43q116 4 196 -61t80 -192q0 -115 -77 -188t-198 -73q-125 0 -197 50t-75 141l81 16q8 -65 60 -98t115 -33q95 0 149.5 47.5t54.5 135.5q0 80 -56.5 127.5t-134.5 47.5q-49 0 -104 -27t-70 -67l-62 32q0 1 1 2h-1z" />
    <glyph glyph-name="six" unicode="6" horiz-adv-x="672" 
d="M140 370q37 63 86 90t121 27q118 0 192.5 -58t74.5 -179q0 -123 -76 -192t-200 -69q-70 0 -122 21.5t-83 56.5t-50 86.5t-25.5 103.5t-6.5 117q0 76 15.5 142t48.5 121t92 87t138 32q119 0 184 -50t67 -141l-81 -16q-5 67 -54.5 98.5t-110.5 31.5q-210 0 -210 -304v-5z
M333 65q89 0 141 45t52 128q0 80 -48.5 125.5t-125.5 45.5q-93 0 -144.5 -50t-54.5 -138q34 -156 180 -156z" />
    <glyph glyph-name="seven" unicode="7" horiz-adv-x="672" 
d="M178 0q1 87 39 201q67 200 195 365q44 56 79 96q-70 0 -213.5 -0.5t-212.5 -0.5v85h551v-74q-69 -74 -124 -150q-130 -177 -182 -331q-38 -111 -39 -191h-93z" />
    <glyph glyph-name="eight" unicode="8" horiz-adv-x="672" 
d="M337 -9q-140 0 -219.5 56.5t-79.5 161.5q0 115 112 174q-91 50 -91 165q0 101 73.5 154.5t204.5 53.5q132 0 208 -54t76 -154q0 -106 -98 -162q118 -56 118 -177q0 -106 -81 -162t-223 -56zM337 674q-88 0 -134 -32.5t-46 -93.5q0 -64 37.5 -93.5t115.5 -33.5q8 1 27 1
q17 0 26 -1q160 9 160 127q0 61 -48 93.5t-138 32.5zM337 73q100 0 153 34.5t53 101.5q0 136 -206 136q-94 0 -147.5 -39t-53.5 -97q0 -67 51.5 -101.5t149.5 -34.5z" />
    <glyph glyph-name="nine" unicode="9" horiz-adv-x="672" 
d="M525 375q-37 -63 -86 -90t-121 -27q-118 0 -192.5 58t-74.5 179q0 123 76 192t200 69q70 0 122 -21.5t83 -56.5t50 -86.5t25.5 -103.5t6.5 -117q0 -76 -15.5 -142t-48.5 -121t-92 -87t-138 -32q-119 0 -184 50t-67 141l81 16q5 -67 54.5 -98.5t110.5 -31.5q210 0 210 304
v5zM332 680q-89 0 -141 -45t-52 -128q0 -80 48.5 -125.5t125.5 -45.5q93 0 144.5 50t54.5 138q-34 156 -180 156z" />
    <glyph glyph-name="colon" unicode=":" horiz-adv-x="335" 
d="M95 401q0 34 21 56t53 22q34 0 56 -22t22 -56q0 -32 -22 -53t-56 -21q-31 0 -52.5 21.5t-21.5 52.5zM95 68q0 34 21 56t53 22q34 0 56 -22t22 -56q0 -32 -22 -53t-56 -21q-31 0 -52.5 21t-21.5 53z" />
    <glyph glyph-name="semicolon" unicode=";" horiz-adv-x="338" 
d="M93 401q0 34 21 56t53 22q34 0 56 -22t22 -56q0 -32 -22 -53t-56 -21q-31 0 -52.5 21.5t-21.5 52.5zM92 73q0 29 20.5 50t50.5 21q45 0 69 -33q19 -25 19 -63q0 -62 -31 -120q-30 -55 -84 -95l-38 43q8 7 20 19t32 45t21 60h-6q-36 0 -54.5 21.5t-18.5 51.5z" />
    <glyph glyph-name="question" unicode="?" horiz-adv-x="534" 
d="M27 565q2 91 69.5 141t192.5 50q99 0 167 -52t68 -126q0 -21 -3 -39t-12 -32t-16 -25t-23 -21t-25 -16t-31 -13.5t-31.5 -10.5t-35.5 -10.5t-34 -9.5q-58 -17 -83.5 -34.5t-25.5 -51.5q0 -56 61 -54q22 1 39 19t17 32l64 -9q1 -50 -37.5 -80t-91.5 -32q-64 -2 -102 37
t-36 91q2 53 40 89t93 51q107 28 134 44q44 25 44 67q0 56 -51 82.5t-104 26.5q-65 0 -112.5 -31t-53.5 -99zM169 68q0 34 21 56t53 22q34 0 56 -22t22 -56q0 -32 -22 -53t-56 -21q-31 0 -52.5 21t-21.5 53z" />
    <glyph glyph-name="at" unicode="@" horiz-adv-x="732" 
d="M555 -32q-27 -27 -82.5 -44.5t-107.5 -17.5q-151 0 -233 85t-82 235q0 163 89 257.5t238 94.5q127 0 213 -74.5t91 -214.5q3 -100 -31.5 -161t-107.5 -62q-34 0 -58 19t-29 52l-3 1h-5q-45 -73 -114 -73q-48 0 -78 26t-30 68q0 80 82 101q51 12 122 3v23q0 72 -59 72
q-37 0 -49 -19t-5 -35l-80 6q-2 7 -2 14q0 41 41 66t95 25q135 0 135 -128v-82q0 -44 11 -60t35 -16q34 0 45 34t10 119q-1 109 -61.5 164t-165.5 55q-133 0 -193 -66t-60 -198q0 -134 60 -196t192 -62q86 0 149 37zM305 163q0 -33 39 -33q51 0 85 47v39l-52 -2
q-72 -4 -72 -51z" />
    <glyph glyph-name="A" unicode="A" horiz-adv-x="683" 
d="M671 0h-94q-38 112 -80 225h-299l-79 -225h-95l272 740h101zM347 642q-63 -179 -123 -345h247q-101 279 -124 345z" />
    <glyph glyph-name="B" unicode="B" horiz-adv-x="623" 
d="M67 740h247q72 0 118 -10.5t78 -37.5q64 -53 64 -145q0 -124 -149 -168q170 -32 170 -181q0 -65 -21.5 -103t-64.5 -63q-25 -15 -63 -22.5t-65 -8.5t-77 -1h-237v740zM284 410q87 0 138.5 30.5t51.5 95.5q0 129 -160 129h-154v-255h124zM316 77q90 0 134 25t44 96
q0 29 -13 56.5t-34 43.5q-44 33 -141 33h-146v-254h156z" />
    <glyph glyph-name="C" unicode="C" horiz-adv-x="772" 
d="M735 258q-7 -123 -101 -197q-90 -72 -223 -72q-168 0 -261.5 101t-93.5 270q0 173 100.5 281.5t263.5 108.5q143 0 229 -81q74 -69 77 -188l-24 -3t-24 -2q-2 0 -6 -0.5t-6 -0.5l-37 -4q-3 92 -63.5 147t-147.5 55q-119 0 -189 -85.5t-70 -217.5q0 -137 69.5 -218
t189.5 -81q93 0 153 50.5t67 147.5z" />
    <glyph glyph-name="D" unicode="D" horiz-adv-x="687" 
d="M67 740h226q48 0 103.5 -13.5t94.5 -35.5q68 -49 110.5 -136t42.5 -185t-42.5 -185t-110.5 -136q-39 -22 -94.5 -35.5t-103.5 -13.5h-226v740zM268 78q110 0 180 48q48 38 75 103t27 141t-27 141t-75 103q-70 48 -180 48h-109v-584h109z" />
    <glyph glyph-name="E" unicode="E" horiz-adv-x="575" 
d="M56 740h498v-76h-406v-245h330v-77h-330v-266h406v-76h-498v740z" />
    <glyph glyph-name="F" unicode="F" horiz-adv-x="586" 
d="M55 740h499v-75h-407v-248h331v-75h-331v-342h-92v740z" />
    <glyph glyph-name="G" unicode="G" horiz-adv-x="820" 
d="M417 370h330v-377h-89v110q-20 -27 -43 -45q-86 -69 -210 -69q-160 0 -252.5 101.5t-92.5 269.5q0 172 99 281t255 109t233 -71q65 -60 84 -170l-51 -8q-48 -7 -52 -8q-8 80 -64 130t-145 50q-125 0 -189 -83.5t-64 -219.5t64 -219t189 -83q97 0 162 59.5t77 151.5v21
h-241v70z" />
    <glyph glyph-name="H" unicode="H" horiz-adv-x="729" 
d="M570 740h92v-740h-92v323h-404v-323h-92v740h92v-341h404v341z" />
    <glyph glyph-name="I" unicode="I" horiz-adv-x="322" 
d="M112 740h92v-740h-92v740z" />
    <glyph glyph-name="J" unicode="J" horiz-adv-x="348" 
d="M153 740h93v-471q0 -139 -20 -187q-24 -42 -72 -62.5t-102 -20.5q-11 0 -35 2h-3l3 84q20 -2 29 -2q57 0 83 34q24 36 24 148v475z" />
    <glyph glyph-name="K" unicode="K" horiz-adv-x="712" 
d="M116 740h91v-740h-91v740zM210 395l-1 -1l325 346h111l-317 -338q35 -45 100 -126.5t118 -148.5t100 -127h-118q-47 58 -147 186l-117 148l-56 -60z" />
    <glyph glyph-name="L" unicode="L" horiz-adv-x="579" 
d="M85 740h92v-662h393v-78h-485v740z" />
    <glyph glyph-name="M" unicode="M" horiz-adv-x="901" 
d="M418 10l-245 602v-612h-92v740h131l245 -605l247 605h129v-740h-90v617l-247 -607h-78z" />
    <glyph glyph-name="N" unicode="N" horiz-adv-x="780" 
d="M591 740h92v-740h-106l-384 607v-607h-92v740h112q57 -91 186 -295t192 -305v600z" />
    <glyph glyph-name="O" unicode="O" horiz-adv-x="810" 
d="M404 750q168 0 270.5 -106t102.5 -273q0 -168 -104 -274.5t-269 -106.5q-164 0 -265.5 106t-101.5 275q0 167 100 273t267 106zM404 668q-127 0 -197 -81.5t-70 -215.5q0 -135 69.5 -217t197.5 -82q132 0 203.5 81.5t71.5 217.5q0 134 -71.5 215.5t-203.5 81.5z" />
    <glyph glyph-name="P" unicode="P" horiz-adv-x="598" 
d="M63 740h219q287 0 287 -224q0 -62 -24 -107.5t-66 -70t-90.5 -35.5t-106.5 -11h-122v-292h-97v740zM282 370q91 0 141 32t50 114q0 81 -46.5 113.5t-144.5 32.5h-122v-292h122z" />
    <glyph glyph-name="Q" unicode="Q" horiz-adv-x="833" 
d="M393 750q168 0 270.5 -106t102.5 -273q0 -109 -45.5 -194t-126.5 -134q12 -27 34 -38.5t45 -6.5q24 6 46 32l54 -37q-10 -23 -34.5 -43t-51.5 -27q-16 -5 -40 -5q-41 0 -76 25t-52 66q-62 -19 -126 -19q-164 0 -265.5 106t-101.5 275q0 167 100 273t267 106zM393 668
q-127 0 -197 -81.5t-70 -215.5q0 -135 69.5 -217t197.5 -82q132 0 203.5 81.5t71.5 217.5q0 134 -71.5 215.5t-203.5 81.5z" />
    <glyph glyph-name="R" unicode="R" horiz-adv-x="634" 
d="M52 740h277q131 0 203 -53v1q63 -59 63 -151q0 -101 -66 -154q-43 -35 -109 -49q36 -21 61.5 -64.5t60.5 -149.5q33 -96 46 -120h-105l-32 95q-3 8 -11.5 33.5l-12.5 37.5t-13 35.5t-16 37.5t-17 31.5t-20.5 30t-22.5 21.5q-14 -1 -39 -1h-154v-321h-93v740zM309 397
q99 0 144 29q45 30 45 101q0 138 -169 138h-184v-268h164z" />
    <glyph glyph-name="S" unicode="S" horiz-adv-x="650" 
d="M507 542q-6 66 -60 98.5t-124 32.5q-170 0 -170 -123q0 -53 45.5 -85.5t162.5 -44.5q128 -14 187 -61.5t59 -144.5q0 -94 -76 -159t-217 -65q-118 0 -195.5 57t-84.5 154q6 1 19 4t20 4q2 0 38 8q12 -41 33 -70.5t41.5 -44.5t50.5 -23t50 -9.5t49 -1.5q75 0 129.5 35.5
t54.5 106.5q0 37 -16 62.5t-49 40.5t-71 23t-96 13q-69 7 -117 30.5t-69.5 55t-29.5 57t-8 49.5q0 83 60.5 146t184.5 63q134 0 205.5 -49.5t73.5 -141.5z" />
    <glyph glyph-name="T" unicode="T" horiz-adv-x="605" 
d="M20 740h565v-76h-233v-664h-90v664h-242v76z" />
    <glyph glyph-name="U" unicode="U" horiz-adv-x="751" 
d="M378 -10q-82 0 -143.5 25.5t-95.5 69.5t-50 95.5t-16 110.5v449h91v-449q0 -118 60.5 -167.5t153.5 -49.5t154 49.5t61 167.5v449h92v-449q0 -59 -16 -110.5t-50.5 -95.5t-96 -69.5t-144.5 -25.5z" />
    <glyph glyph-name="V" unicode="V" horiz-adv-x="655" 
d="M32 740h94l208 -585l209 585h94l-275 -740h-55z" />
    <glyph glyph-name="W" unicode="W" horiz-adv-x="1053" 
d="M48 740h90q12 -39 94 -298l80 -257q10 32 38 120.5t44 136.5l93 298h84q45 -150 152 -489l22 -66q42 142 140 449l35 106h90l-227 -740h-56l-198 593l-199 -593h-55z" />
    <glyph glyph-name="X" unicode="X" horiz-adv-x="711" 
d="M149 740l216 -304l214 304h97l-262 -373l261 -367h-116l-209 300l-208 -300h-101q38 55 125.5 178.5t134.5 191.5l-257 370h105z" />
    <glyph glyph-name="Y" unicode="Y" horiz-adv-x="702" 
d="M352 397l209 343h101q-28 -45 -97 -153t-107 -168q-10 -15 -30 -47.5t-30 -47.5v-324h-91v324q-13 20 -60 95l-204 321h101z" />
    <glyph glyph-name="Z" unicode="Z" horiz-adv-x="664" 
d="M36 49l19 26l427 590h-436v75h558v-48l-5 -6h1l-440 -611h444v-75h-568v49z" />
    <glyph glyph-name="bracketleft" unicode="[" horiz-adv-x="407" 
d="M105 757h276v-52h-188v-863h188v-52h-276v967z" />
    <glyph glyph-name="backslash" unicode="\" horiz-adv-x="444" 
d="M399 0h-94l-260 757h94z" />
    <glyph glyph-name="bracketright" unicode="]" horiz-adv-x="407" 
d="M302 -210h-276v52h188v863h-188v52h276v-967z" />
    <glyph glyph-name="underscore" unicode="_" horiz-adv-x="560" 
d="M-5 -141h570v-68h-570v68z" />
    <glyph glyph-name="grave" unicode="`" horiz-adv-x="833" 
d="M312 740l94 -198h-65l-121 198h92z" />
    <glyph glyph-name="a" unicode="a" horiz-adv-x="510" 
d="M341 297q0 113 -101 113q-39 0 -64.5 -10.5t-32.5 -25t-9 -30.5t4 -26l-85 6q-2 9 -2 22q0 58 56.5 93.5t131.5 35.5q186 0 186 -176v-186q0 -32 10.5 -46.5t41.5 -10.5v-59q-21 -7 -42 -7q-37 0 -59 23.5t-25 52.5l-9 3q-69 -79 -158 -79q-65 0 -105.5 34.5t-40.5 91.5
q0 104 111 136q31 9 95 11l97 2v32zM128 122q0 -32 20 -48.5t53 -16.5q36 0 76 24.5t64 66.5v60l-92 -3q-121 -6 -121 -83z" />
    <glyph glyph-name="b" unicode="b" horiz-adv-x="552" 
d="M57 750h82v-360q56 87 160 87q93 0 154.5 -66t61.5 -171q0 -119 -65.5 -183.5t-166.5 -64.5q-94 0 -147 76l-11 -5l4 -63h-72v750zM280 405q-61 0 -100 -43t-41 -115v-14q0 -74 37.5 -123.5t105.5 -49.5q58 0 99.5 40.5t41.5 131.5q0 90 -42 131.5t-101 41.5z" />
    <glyph glyph-name="c" unicode="c" horiz-adv-x="493" 
d="M466 168q4 -38 -15 -73t-50 -60q-57 -44 -148 -44q-101 0 -156.5 64t-55.5 172q0 110 63.5 181t161.5 71q90 0 143 -45q63 -54 55 -121l-80 -11q3 43 -24 72q-33 39 -92 39q-63 0 -101.5 -53.5t-38.5 -125.5q0 -76 35 -126t104 -50q52 0 89 37q27 29 27 84z" />
    <glyph glyph-name="d" unicode="d" horiz-adv-x="567" 
d="M415 74q-53 -81 -162 -81q-94 0 -155.5 66t-61.5 171q0 119 66 183.5t167 64.5q93 0 144 -68v340h83v-750h-71l3 70zM272 65q63 0 102 45t39 120v7q0 74 -37.5 123.5t-105.5 49.5q-58 0 -99.5 -40.5t-41.5 -131.5q0 -90 42 -131.5t101 -41.5z" />
    <glyph glyph-name="e" unicode="e" horiz-adv-x="504" 
d="M455 148q4 -53 -47 -102q-55 -55 -160 -55q-102 0 -155 63.5t-53 172.5q0 110 60.5 179t156.5 69q89 0 147 -54.5t59 -146.5h1v-56h-342q3 -73 36.5 -117t103.5 -44q51 0 87 36q26 28 25 66zM258 409q-59 0 -92.5 -37t-41.5 -98h254q1 61 -32.5 98t-87.5 37z" />
    <glyph glyph-name="f" unicode="f" horiz-adv-x="296" 
d="M185 404v-404h-82v404h-88v66h88q-1 33 -15.5 83t-14.5 76q0 56 44.5 88.5t93.5 32.5q124 0 146 -86q5 -21 -1 -45l-80 -17q9 83 -70 83q-21 0 -35.5 -15.5t-14.5 -40.5q0 -26 12.5 -74t15.5 -85h113v-66h-112z" />
    <glyph glyph-name="g" unicode="g" horiz-adv-x="521" 
d="M61 304q0 73 52.5 122t149.5 49q19 0 37 -3q-4 10 -4 34q0 44 34.5 70t81.5 26q83 0 113 -55l-45 -42q-26 33 -73 31q-20 -1 -32 -15.5t-12 -30.5q0 -26 18 -43q41 -23 62.5 -60.5t21.5 -82.5q0 -71 -52.5 -120t-149.5 -49q-42 0 -75 9q-48 -14 -48 -44t29 -37t142 -7
q87 0 145.5 -33.5t58.5 -100.5q0 -47 -26.5 -82t-68.5 -53.5t-84 -27.5t-83 -9q-104 0 -161.5 37.5t-57.5 102.5q0 37 36 67t70 35q-85 17 -85 90q0 60 74 90q-68 46 -68 132zM148 304q0 -46 31 -77t84 -31t84.5 31t31.5 77q0 48 -31.5 79t-84.5 31t-84 -31t-31 -79z
M122 -99q0 -39 39.5 -59.5t93.5 -20.5q71 0 123 24.5t52 64.5q0 77 -154 74q-12 0 -26 -0.5t-18 -0.5h-11q-99 -24 -99 -82z" />
    <glyph glyph-name="h" unicode="h" horiz-adv-x="496" 
d="M366 274q0 124 -104 124q-26 0 -51.5 -10.5t-48 -42.5t-23.5 -82v-263h-82v750h82v-355q22 36 59 58t82 22q84 0 126 -49t42 -134v-292h-82v274z" />
    <glyph glyph-name="i" unicode="i" horiz-adv-x="235" 
d="M61 655q0 25 15 39t41 14t40.5 -14t14.5 -39t-14.5 -39t-40.5 -14t-41 14t-15 39zM75 470h82v-470h-82v470z" />
    <glyph glyph-name="j" unicode="j" horiz-adv-x="271" 
d="M88 655q0 25 15 39t41 14t40.5 -14t14.5 -39t-14.5 -39t-40.5 -14t-41 14t-15 39zM99 470h82v-510q0 -79 -13.5 -122.5t-49.5 -68.5q-50 -34 -153 -9l4 70q28 -11 64 -11q38 0 52.5 33.5t13.5 104.5v513z" />
    <glyph glyph-name="k" unicode="k" horiz-adv-x="478" 
d="M77 750h82v-484l205 203h105l-189 -184l203 -285h-103l-161 225l-60 -59v-166h-82v750z" />
    <glyph glyph-name="l" unicode="l" horiz-adv-x="219" 
d="M73 750h82v-750h-82v750z" />
    <glyph glyph-name="m" unicode="m" horiz-adv-x="823" 
d="M365 274q0 64 -29 94t-74 30q-26 0 -51.5 -10.5t-48 -42.5t-23.5 -82v-263h-82v470h74v-89q20 42 60 68t89 26q115 0 153 -100q17 45 59 72.5t96 27.5q80 0 123.5 -49.5t43.5 -133.5v-292h-82v274q0 64 -29 94t-74 30t-84 -33.5t-39 -109.5v-255h-82v274z" />
    <glyph glyph-name="n" unicode="n" horiz-adv-x="535" 
d="M391 274q0 124 -104 124q-26 0 -51.5 -10.5t-48 -42.5t-23.5 -82v-263h-82v470h74v-89q20 42 60 68t89 26q84 0 126 -49t42 -134v-292h-82v274z" />
    <glyph glyph-name="o" unicode="o" horiz-adv-x="545" 
d="M40 223q0 104 61 179t172 75q110 0 171 -71t61 -173q0 -101 -61 -172t-171 -71q-111 0 -172 69t-61 164zM131 233q0 -72 35 -124.5t107 -52.5t106 52.5t34 124.5q0 73 -34 125.5t-106 52.5t-107 -52.5t-35 -125.5z" />
    <glyph glyph-name="p" unicode="p" horiz-adv-x="552" 
d="M123 400l14 -4q53 81 162 81q93 0 154.5 -66t61.5 -171q0 -119 -65.5 -183.5t-166.5 -64.5q-95 0 -144 68v-310h-82v720h70zM280 405q-63 0 -102 -45t-39 -120v-14q2 -72 39.5 -119t103.5 -47q58 0 99.5 40.5t41.5 131.5q0 90 -42 131.5t-101 41.5z" />
    <glyph glyph-name="q" unicode="q" horiz-adv-x="571" 
d="M495 -250h-82v320q-54 -78 -160 -78q-93 0 -154.5 66t-61.5 171q0 119 65.5 183.5t166.5 64.5q95 0 145 -70l15 4l-1 59h67v-720zM272 64q63 0 102 45t39 120v14q-2 72 -39.5 119t-103.5 47q-58 0 -99.5 -40.5t-41.5 -131.5q0 -90 42 -131.5t101 -41.5z" />
    <glyph glyph-name="r" unicode="r" horiz-adv-x="400" 
d="M61 470h74v-89q19 43 52.5 68.5t70.5 25.5q63 0 100 -31.5t37 -93.5q0 -10 -2 -34l-86 -14q4 36 -1 54q-14 49 -66 49q-39 0 -65 -46q-29 -42 -32 -133v-226h-82v470z" />
    <glyph glyph-name="s" unicode="s" horiz-adv-x="441" 
d="M312 338q-2 38 -32.5 55t-71.5 17q-38 0 -62 -17t-24 -43q0 -28 23 -43.5t93 -30.5q81 -17 120.5 -49t39.5 -90q0 -62 -49 -104t-144 -42q-71 0 -124 36.5t-50 102.5l72 18q15 -92 114 -92q47 0 73 18t26 48q0 32 -28 48t-90 31q-86 20 -122 53q-33 32 -33 83q0 54 44 96
t130 42q65 0 118.5 -31.5t50.5 -89.5z" />
    <glyph glyph-name="t" unicode="t" horiz-adv-x="319" 
d="M176 404v-261q0 -49 9 -63.5t31 -14.5q35 0 66 10l1 -66q-47 -15 -100 -15q-19 0 -33.5 4.5t-24 9t-16 18.5t-9.5 21t-4.5 30.5t-1.5 32v39.5v255h-76v63h76v168l82 30v-198h120v-63h-120z" />
    <glyph glyph-name="u" unicode="u" horiz-adv-x="508" 
d="M132 191q0 -66 26 -95t78 -29q45 0 84 33.5t39 109.5v260h82v-470h-74v84q-21 -42 -61 -68t-88 -26q-84 0 -126 49t-42 134v297h82v-279z" />
    <glyph glyph-name="v" unicode="v" horiz-adv-x="468" 
d="M16 470h84l134 -358l135 358h83l-177 -470h-81z" />
    <glyph glyph-name="w" unicode="w" horiz-adv-x="725" 
d="M16 470h83l116 -335l115 335h66l115 -335l115 335h83l-167 -470h-61l-113 324l-5 19l-4 -18l-114 -325h-61z" />
    <glyph glyph-name="x" unicode="x" horiz-adv-x="464" 
d="M347 0l-118 170l-113 -170h-94l160 237l-162 233h97l118 -170l113 170h94l-160 -238l162 -232h-97z" />
    <glyph glyph-name="y" unicode="y" horiz-adv-x="485" 
d="M233 -111q-28 -75 -72 -104.5t-87 -29.5q-53 0 -71 21l17 85q20 -17 53 -17q32 0 52.5 18.5t42.5 74.5l25 66l-178 467h86l131 -348l2 -10l1 3l2 7l131 348h84z" />
    <glyph glyph-name="z" unicode="z" horiz-adv-x="426" 
d="M37 470h359v-69l-270 -332h275v-69h-375v69l270 332h-259v69z" />
    <glyph glyph-name="braceleft" unicode="{" horiz-adv-x="399" 
d="M85 298q37 2 56.5 29.5t25 69t6.5 91t5.5 98t17.5 88t47.5 63t89.5 20.5l1 -40q-29 -2 -44 -28t-18.5 -65.5t-4 -86.5t-4 -93.5t-14.5 -84.5t-40 -62t-76 -24q47 0 76 -24t40 -62t14.5 -84.5t4 -93.5t4 -86.5t18.5 -65.5t44 -28l-1 -40q-55 -3 -89.5 20.5t-47.5 63
t-17.5 88t-5.5 98t-6.5 91t-25 69t-56.5 29.5v50z" />
    <glyph glyph-name="bar" unicode="|" horiz-adv-x="378" 
d="M145 757h88v-967h-88v967z" />
    <glyph glyph-name="braceright" unicode="}" horiz-adv-x="399" 
d="M314 248q-37 -2 -56.5 -29.5t-25 -69t-6.5 -91t-5.5 -98t-17.5 -88t-47.5 -63t-89.5 -20.5l-1 40q29 2 44 28t18.5 65.5t4 86.5t4 93.5t14.5 84.5t40 62t76 24q-47 0 -76 24t-40 62t-14.5 84.5t-4 93.5t-4 86.5t-18.5 65.5t-44 28l1 40q55 3 89.5 -20.5t47.5 -63
t17.5 -88t5.5 -98t6.5 -91t25 -69t56.5 -29.5v-50z" />
    <glyph glyph-name="asciitilde" unicode="~" horiz-adv-x="576" 
d="M25 272q2 4 6 10t19 21.5t32.5 27.5t46.5 21.5t61 9.5q46 0 79 -16t59.5 -31.5t56.5 -15.5q34 0 62.5 16.5t40.5 32.5l11 16l52 -45q-2 -4 -6 -10t-19 -21.5t-32 -27.5t-46.5 -21.5t-62.5 -9.5q-53 0 -107 31.5t-88 31.5q-21 0 -40.5 -6.5t-32 -16t-22 -19.5t-13.5 -16
l-5 -7z" />
    <glyph glyph-name="dieresis" unicode="&#xa8;" horiz-adv-x="833" 
d="M117 635q0 25 15 39t41 14t40.5 -14t14.5 -39t-14.5 -39t-40.5 -14t-41 14t-15 39zM292 635q0 25 15 39t41 14t40.5 -14t14.5 -39t-14.5 -39t-40.5 -14t-41 14t-15 39z" />
    <glyph glyph-name="guillemotleft" unicode="&#xab;" horiz-adv-x="517" 
d="M80 255l90 215h104l-90 -215l90 -214h-104zM261 255l90 215h104l-90 -215l90 -214h-104z" />
    <glyph glyph-name="acute" unicode="&#xb4;" horiz-adv-x="833" 
d="M406 740l-121 -198h-65l94 198h92z" />
    <glyph glyph-name="cedilla" unicode="&#xb8;" horiz-adv-x="823" 
d="M276 11l-3 -46q89 -21 89 -91q0 -45 -33.5 -66.5t-78.5 -21.5q-46 0 -82 18l17 49q26 -12 55 -12q46 0 46 34q0 23 -25.5 36.5t-61.5 9.5l20 90h57z" />
    <glyph glyph-name="guillemotright" unicode="&#xbb;" horiz-adv-x="517" 
d="M164 41h-104l90 214l-90 215h104l90 -215zM345 41h-104l90 214l-90 215h104l90 -215z" />
    <glyph glyph-name="Agrave" unicode="&#xc0;" horiz-adv-x="683" 
d="M326 977l94 -198h-65l-121 198h92zM671 0h-94q-38 112 -80 225h-299l-79 -225h-95l272 740h101zM347 642q-63 -179 -123 -345h247q-101 279 -124 345z" />
    <glyph glyph-name="Aacute" unicode="&#xc1;" horiz-adv-x="683" 
d="M400 731l271 -731h-94q-38 112 -80 225h-299l-79 -225h-95l199 542h-3l14 30l62 168h101h9zM224 297h247q-101 279 -124 345q-63 -179 -123 -345z" />
    <glyph glyph-name="Acircumflex" unicode="&#xc2;" horiz-adv-x="683" 
d="M379 974l152 -208h-82l-101 127l-101 -127h-82l152 208h62zM671 0h-94q-38 112 -80 225h-299l-79 -225h-95l272 740h101zM347 642q-63 -179 -123 -345h247q-101 279 -124 345z" />
    <glyph glyph-name="Atilde" unicode="&#xc3;" horiz-adv-x="683" 
d="M171 772q0 57 27.5 96t88.5 39q32 0 71.5 -29t52.5 -29q22 0 33.5 12t13 23t1.5 28h53q0 -57 -27.5 -96t-88.5 -39q-32 0 -71.5 29t-52.5 29q-48 0 -48 -63h-53zM671 0h-94q-38 112 -80 225h-299l-79 -225h-95l272 740h101zM347 642q-63 -179 -123 -345h247
q-101 279 -124 345z" />
    <glyph glyph-name="Adieresis" unicode="&#xc4;" horiz-adv-x="683" 
d="M203 835q0 25 15 39t41 14t40.5 -14t14.5 -39t-14.5 -39t-40.5 -14t-41 14t-15 39zM378 835q0 25 15 39t41 14t40.5 -14t14.5 -39t-14.5 -39t-40.5 -14t-41 14t-15 39zM671 0h-94q-38 112 -80 225h-299l-79 -225h-95l272 740h101zM347 642q-63 -179 -123 -345h247
q-101 279 -124 345z" />
    <glyph glyph-name="Aring" unicode="&#xc5;" 
 />
    <glyph glyph-name="AE" unicode="&#xc6;" 
 />
    <glyph glyph-name="Ccedilla" unicode="&#xc7;" horiz-adv-x="772" 
d="M638 269l97 -11q-7 -123 -101 -197q-90 -72 -223 -72q-75 0 -135 21l-3 -45q89 -21 89 -91q0 -45 -33.5 -66.5t-78.5 -21.5q-46 0 -82 18l17 49q26 -12 55 -12q46 0 46 34q0 23 -25.5 36.5t-61.5 9.5l20 90h53q-104 37 -160 128t-56 221q0 173 100.5 281.5t263.5 108.5
q143 0 229 -81q74 -69 77 -188l-24 -3t-24 -2q-2 0 -6 -0.5t-6 -0.5l-37 -4q-3 92 -63.5 147t-147.5 55q-119 0 -189 -85.5t-70 -217.5q0 -137 69.5 -218t189.5 -81q93 0 153 50.5t67 147.5z" />
    <glyph glyph-name="Egrave" unicode="&#xc8;" horiz-adv-x="575" 
d="M312 983l94 -198h-65l-121 198h92zM56 740h498v-76h-406v-245h330v-77h-330v-266h406v-76h-498v740z" />
    <glyph glyph-name="Eacute" unicode="&#xc9;" horiz-adv-x="575" 
d="M406 981l-121 -198h-65l94 198h92zM56 740h498v-76h-406v-245h330v-77h-330v-266h406v-76h-498v740z" />
    <glyph glyph-name="Ecircumflex" unicode="&#xca;" horiz-adv-x="575" 
d="M332 1010l152 -208h-82l-101 127l-101 -127h-82l152 208h62zM56 740h498v-76h-406v-245h330v-77h-330v-266h406v-76h-498v740z" />
    <glyph glyph-name="Edieresis" unicode="&#xcb;" horiz-adv-x="575" 
d="M169 850q0 25 15 39t41 14t40.5 -14t14.5 -39t-14.5 -39t-40.5 -14t-41 14t-15 39zM344 850q0 25 15 39t41 14t40.5 -14t14.5 -39t-14.5 -39t-40.5 -14t-41 14t-15 39zM56 740h498v-76h-406v-245h330v-77h-330v-266h406v-76h-498v740z" />
    <glyph glyph-name="Igrave" unicode="&#xcc;" horiz-adv-x="322" 
d="M143 988l94 -198h-65l-121 198h92zM112 740h92v-740h-92v740z" />
    <glyph glyph-name="Iacute" unicode="&#xcd;" horiz-adv-x="322" 
d="M265 974l-121 -198h-65l94 198h92zM112 740h92v-740h-92v740z" />
    <glyph glyph-name="Icircumflex" unicode="&#xce;" horiz-adv-x="322" 
d="M190 979l152 -208h-82l-101 127l-101 -127h-82l152 208h62zM112 740h92v-740h-92v740z" />
    <glyph glyph-name="Idieresis" unicode="&#xcf;" horiz-adv-x="322" 
d="M12 833q0 25 15 39t41 14t40.5 -14t14.5 -39t-14.5 -39t-40.5 -14t-41 14t-15 39zM187 833q0 25 15 39t41 14t40.5 -14t14.5 -39t-14.5 -39t-40.5 -14t-41 14t-15 39zM112 740h92v-740h-92v740z" />
    <glyph glyph-name="Eth" unicode="&#xd0;" 
 />
    <glyph glyph-name="Ntilde" unicode="&#xd1;" horiz-adv-x="780" 
d="M221 790q0 57 27.5 96t88.5 39q32 0 71.5 -29t52.5 -29q22 0 33.5 12t13 23t1.5 28h53q0 -57 -27.5 -96t-88.5 -39q-32 0 -71.5 29t-52.5 29q-48 0 -48 -63h-53zM591 740h92v-740h-106l-384 607v-607h-92v740h112q57 -91 186 -295t192 -305v600z" />
    <glyph glyph-name="Ograve" unicode="&#xd2;" horiz-adv-x="810" 
d="M391 978l94 -198h-65l-121 198h92zM404 750q168 0 270.5 -106t102.5 -273q0 -168 -104 -274.5t-269 -106.5q-164 0 -265.5 106t-101.5 275q0 167 100 273t267 106zM404 668q-127 0 -197 -81.5t-70 -215.5q0 -135 69.5 -217t197.5 -82q132 0 203.5 81.5t71.5 217.5
q0 134 -71.5 215.5t-203.5 81.5z" />
    <glyph glyph-name="Oacute" unicode="&#xd3;" horiz-adv-x="810" 
d="M507 978l-121 -198h-65l94 198h92zM404 750q168 0 270.5 -106t102.5 -273q0 -168 -104 -274.5t-269 -106.5q-164 0 -265.5 106t-101.5 275q0 167 100 273t267 106zM404 668q-127 0 -197 -81.5t-70 -215.5q0 -135 69.5 -217t197.5 -82q132 0 203.5 81.5t71.5 217.5
q0 134 -71.5 215.5t-203.5 81.5z" />
    <glyph glyph-name="Ocircumflex" unicode="&#xd4;" horiz-adv-x="810" 
d="M438 982l152 -208h-82l-101 127l-101 -127h-82l152 208h62zM404 750q168 0 270.5 -106t102.5 -273q0 -168 -104 -274.5t-269 -106.5q-164 0 -265.5 106t-101.5 275q0 167 100 273t267 106zM404 668q-127 0 -197 -81.5t-70 -215.5q0 -135 69.5 -217t197.5 -82
q132 0 203.5 81.5t71.5 217.5q0 134 -71.5 215.5t-203.5 81.5z" />
    <glyph glyph-name="Otilde" unicode="&#xd5;" horiz-adv-x="810" 
d="M224 783q0 57 27.5 96t88.5 39q32 0 71.5 -29t52.5 -29q22 0 33.5 12t13 23t1.5 28h53q0 -57 -27.5 -96t-88.5 -39q-32 0 -71.5 29t-52.5 29q-48 0 -48 -63h-53zM404 750q168 0 270.5 -106t102.5 -273q0 -168 -104 -274.5t-269 -106.5q-164 0 -265.5 106t-101.5 275
q0 167 100 273t267 106zM404 668q-127 0 -197 -81.5t-70 -215.5q0 -135 69.5 -217t197.5 -82q132 0 203.5 81.5t71.5 217.5q0 134 -71.5 215.5t-203.5 81.5z" />
    <glyph glyph-name="Odieresis" unicode="&#xd6;" horiz-adv-x="810" 
d="M260 847q0 25 15 39t41 14t40.5 -14t14.5 -39t-14.5 -39t-40.5 -14t-41 14t-15 39zM435 847q0 25 15 39t41 14t40.5 -14t14.5 -39t-14.5 -39t-40.5 -14t-41 14t-15 39zM404 750q168 0 270.5 -106t102.5 -273q0 -168 -104 -274.5t-269 -106.5q-164 0 -265.5 106
t-101.5 275q0 167 100 273t267 106zM404 668q-127 0 -197 -81.5t-70 -215.5q0 -135 69.5 -217t197.5 -82q132 0 203.5 81.5t71.5 217.5q0 134 -71.5 215.5t-203.5 81.5z" />
    <glyph glyph-name="Oslash" unicode="&#xd8;" 
 />
    <glyph glyph-name="Ugrave" unicode="&#xd9;" horiz-adv-x="751" 
d="M376 982l94 -198h-65l-121 198h92zM378 -10q-82 0 -143.5 25.5t-95.5 69.5t-50 95.5t-16 110.5v449h91v-449q0 -118 60.5 -167.5t153.5 -49.5t154 49.5t61 167.5v449h92v-449q0 -59 -16 -110.5t-50.5 -95.5t-96 -69.5t-144.5 -25.5z" />
    <glyph glyph-name="Uacute" unicode="&#xda;" horiz-adv-x="751" 
d="M479 969l-121 -198h-65l94 198h92zM378 -10q-82 0 -143.5 25.5t-95.5 69.5t-50 95.5t-16 110.5v449h91v-449q0 -118 60.5 -167.5t153.5 -49.5t154 49.5t61 167.5v449h92v-449q0 -59 -16 -110.5t-50.5 -95.5t-96 -69.5t-144.5 -25.5z" />
    <glyph glyph-name="Ucircumflex" unicode="&#xdb;" horiz-adv-x="751" 
d="M419 994l152 -208h-82l-101 127l-101 -127h-82l152 208h62zM378 -10q-82 0 -143.5 25.5t-95.5 69.5t-50 95.5t-16 110.5v449h91v-449q0 -118 60.5 -167.5t153.5 -49.5t154 49.5t61 167.5v449h92v-449q0 -59 -16 -110.5t-50.5 -95.5t-96 -69.5t-144.5 -25.5z" />
    <glyph glyph-name="Udieresis" unicode="&#xdc;" horiz-adv-x="751" 
d="M241 861q0 25 15 39t41 14t40.5 -14t14.5 -39t-14.5 -39t-40.5 -14t-41 14t-15 39zM416 861q0 25 15 39t41 14t40.5 -14t14.5 -39t-14.5 -39t-40.5 -14t-41 14t-15 39zM378 -10q-82 0 -143.5 25.5t-95.5 69.5t-50 95.5t-16 110.5v449h91v-449q0 -118 60.5 -167.5
t153.5 -49.5t154 49.5t61 167.5v449h92v-449q0 -59 -16 -110.5t-50.5 -95.5t-96 -69.5t-144.5 -25.5z" />
    <glyph glyph-name="Yacute" unicode="&#xdd;" horiz-adv-x="702" 
d="M461 975l-121 -198h-65l94 198h92zM352 397l209 343h101q-28 -45 -97 -153t-107 -168q-10 -15 -30 -47.5t-30 -47.5v-324h-91v324q-13 20 -60 95l-204 321h101z" />
    <glyph glyph-name="Thorn" unicode="&#xde;" 
 />
    <glyph glyph-name="germandbls" unicode="&#xdf;" 
 />
    <glyph glyph-name="agrave" unicode="&#xe0;" horiz-adv-x="510" 
d="M228 721l94 -198h-65l-121 198h92zM341 297q0 113 -101 113q-39 0 -64.5 -10.5t-32.5 -25t-9 -30.5t4 -26l-85 6q-2 9 -2 22q0 58 56.5 93.5t131.5 35.5q186 0 186 -176v-186q0 -32 10.5 -46.5t41.5 -10.5v-59q-21 -7 -42 -7q-37 0 -59 23.5t-25 52.5l-9 3
q-69 -79 -158 -79q-65 0 -105.5 34.5t-40.5 91.5q0 104 111 136q31 9 95 11l97 2v32zM128 122q0 -32 20 -48.5t53 -16.5q36 0 76 24.5t64 66.5v60l-92 -3q-121 -6 -121 -83z" />
    <glyph glyph-name="aacute" unicode="&#xe1;" horiz-adv-x="510" 
d="M361 720l-121 -198h-65l94 198h92zM341 297q0 113 -101 113q-39 0 -64.5 -10.5t-32.5 -25t-9 -30.5t4 -26l-85 6q-2 9 -2 22q0 58 56.5 93.5t131.5 35.5q186 0 186 -176v-186q0 -32 10.5 -46.5t41.5 -10.5v-59q-21 -7 -42 -7q-37 0 -59 23.5t-25 52.5l-9 3
q-69 -79 -158 -79q-65 0 -105.5 34.5t-40.5 91.5q0 104 111 136q31 9 95 11l97 2v32zM128 122q0 -32 20 -48.5t53 -16.5q36 0 76 24.5t64 66.5v60l-92 -3q-121 -6 -121 -83z" />
    <glyph glyph-name="acircumflex" unicode="&#xe2;" horiz-adv-x="510" 
d="M271 724l152 -208h-82l-101 127l-101 -127h-82l152 208h62zM341 297q0 113 -101 113q-39 0 -64.5 -10.5t-32.5 -25t-9 -30.5t4 -26l-85 6q-2 9 -2 22q0 58 56.5 93.5t131.5 35.5q186 0 186 -176v-186q0 -32 10.5 -46.5t41.5 -10.5v-59q-21 -7 -42 -7q-37 0 -59 23.5
t-25 52.5l-9 3q-69 -79 -158 -79q-65 0 -105.5 34.5t-40.5 91.5q0 104 111 136q31 9 95 11l97 2v32zM128 122q0 -32 20 -48.5t53 -16.5q36 0 76 24.5t64 66.5v60l-92 -3q-121 -6 -121 -83z" />
    <glyph glyph-name="atilde" unicode="&#xe3;" horiz-adv-x="510" 
d="M71 550q0 57 27.5 96t88.5 39q32 0 71.5 -29t52.5 -29q22 0 33.5 12t13 23t1.5 28h53q0 -57 -27.5 -96t-88.5 -39q-32 0 -71.5 29t-52.5 29q-48 0 -48 -63h-53zM341 297q0 113 -101 113q-39 0 -64.5 -10.5t-32.5 -25t-9 -30.5t4 -26l-85 6q-2 9 -2 22q0 58 56.5 93.5
t131.5 35.5q186 0 186 -176v-186q0 -32 10.5 -46.5t41.5 -10.5v-59q-21 -7 -42 -7q-37 0 -59 23.5t-25 52.5l-9 3q-69 -79 -158 -79q-65 0 -105.5 34.5t-40.5 91.5q0 104 111 136q31 9 95 11l97 2v32zM128 122q0 -32 20 -48.5t53 -16.5q36 0 76 24.5t64 66.5v60l-92 -3
q-121 -6 -121 -83z" />
    <glyph glyph-name="adieresis" unicode="&#xe4;" horiz-adv-x="510" 
d="M117 635q0 25 15 39t41 14t40.5 -14t14.5 -39t-14.5 -39t-40.5 -14t-41 14t-15 39zM292 635q0 25 15 39t41 14t40.5 -14t14.5 -39t-14.5 -39t-40.5 -14t-41 14t-15 39zM341 297q0 113 -101 113q-39 0 -64.5 -10.5t-32.5 -25t-9 -30.5t4 -26l-85 6q-2 9 -2 22
q0 58 56.5 93.5t131.5 35.5q186 0 186 -176v-186q0 -32 10.5 -46.5t41.5 -10.5v-59q-21 -7 -42 -7q-37 0 -59 23.5t-25 52.5l-9 3q-69 -79 -158 -79q-65 0 -105.5 34.5t-40.5 91.5q0 104 111 136q31 9 95 11l97 2v32zM128 122q0 -32 20 -48.5t53 -16.5q36 0 76 24.5t64 66.5
v60l-92 -3q-121 -6 -121 -83z" />
    <glyph glyph-name="aring" unicode="&#xe5;" 
 />
    <glyph glyph-name="ae" unicode="&#xe6;" 
 />
    <glyph glyph-name="ccedilla" unicode="&#xe7;" horiz-adv-x="493" 
d="M466 168q4 -38 -15 -73t-50 -60q-50 -38 -126 -43l-2 -27q89 -21 89 -91q0 -45 -33.5 -66.5t-78.5 -21.5q-46 0 -82 18l17 49q26 -12 55 -12q46 0 46 34q0 23 -25.5 36.5t-61.5 9.5l16 73q-84 12 -129 74t-45 159q0 110 63.5 181t161.5 71q90 0 143 -45q63 -54 55 -121
l-80 -11q3 43 -24 72q-33 39 -92 39q-63 0 -101.5 -53.5t-38.5 -125.5q0 -76 35 -126t104 -50q52 0 89 37q27 29 27 84z" />
    <glyph glyph-name="egrave" unicode="&#xe8;" horiz-adv-x="504" 
d="M236 721l94 -198h-65l-121 198h92zM455 148q4 -53 -47 -102q-55 -55 -160 -55q-102 0 -155 63.5t-53 172.5q0 110 60.5 179t156.5 69q89 0 147 -54.5t59 -146.5h1v-56h-342q3 -73 36.5 -117t103.5 -44q51 0 87 36q26 28 25 66zM258 409q-59 0 -92.5 -37t-41.5 -98h254
q1 61 -32.5 98t-87.5 37z" />
    <glyph glyph-name="eacute" unicode="&#xe9;" horiz-adv-x="504" 
d="M364 719l-121 -198h-65l94 198h92zM455 148q4 -53 -47 -102q-55 -55 -160 -55q-102 0 -155 63.5t-53 172.5q0 110 60.5 179t156.5 69q89 0 147 -54.5t59 -146.5h1v-56h-342q3 -73 36.5 -117t103.5 -44q51 0 87 36q26 28 25 66zM258 409q-59 0 -92.5 -37t-41.5 -98h254
q1 61 -32.5 98t-87.5 37z" />
    <glyph glyph-name="ecircumflex" unicode="&#xea;" horiz-adv-x="504" 
d="M280 716l152 -208h-82l-101 127l-101 -127h-82l152 208h62zM455 148q4 -53 -47 -102q-55 -55 -160 -55q-102 0 -155 63.5t-53 172.5q0 110 60.5 179t156.5 69q89 0 147 -54.5t59 -146.5h1v-56h-342q3 -73 36.5 -117t103.5 -44q51 0 87 36q26 28 25 66zM258 409
q-59 0 -92.5 -37t-41.5 -98h254q1 61 -32.5 98t-87.5 37z" />
    <glyph glyph-name="edieresis" unicode="&#xeb;" horiz-adv-x="504" 
d="M117 635q0 25 15 39t41 14t40.5 -14t14.5 -39t-14.5 -39t-40.5 -14t-41 14t-15 39zM292 635q0 25 15 39t41 14t40.5 -14t14.5 -39t-14.5 -39t-40.5 -14t-41 14t-15 39zM455 148q4 -53 -47 -102q-55 -55 -160 -55q-102 0 -155 63.5t-53 172.5q0 110 60.5 179t156.5 69
q89 0 147 -54.5t59 -146.5h1v-56h-342q3 -73 36.5 -117t103.5 -44q51 0 87 36q26 28 25 66zM258 409q-59 0 -92.5 -37t-41.5 -98h254q1 61 -32.5 98t-87.5 37z" />
    <glyph glyph-name="igrave" unicode="&#xec;" 
 />
    <glyph glyph-name="iacute" unicode="&#xed;" 
 />
    <glyph glyph-name="icircumflex" unicode="&#xee;" 
 />
    <glyph glyph-name="idieresis" unicode="&#xef;" 
 />
    <glyph glyph-name="eth" unicode="&#xf0;" 
 />
    <glyph glyph-name="ntilde" unicode="&#xf1;" horiz-adv-x="535" 
d="M109 522q0 57 27.5 96t88.5 39q32 0 71.5 -29t52.5 -29q22 0 33.5 12t13 23t1.5 28h53q0 -57 -27.5 -96t-88.5 -39q-32 0 -71.5 29t-52.5 29q-48 0 -48 -63h-53zM391 274q0 124 -104 124q-26 0 -51.5 -10.5t-48 -42.5t-23.5 -82v-263h-82v470h74v-89q20 42 60 68t89 26
q84 0 126 -49t42 -134v-292h-82v274z" />
    <glyph glyph-name="ograve" unicode="&#xf2;" horiz-adv-x="545" 
d="M262 719l94 -198h-65l-121 198h92zM40 223q0 104 61 179t172 75q110 0 171 -71t61 -173q0 -101 -61 -172t-171 -71q-111 0 -172 69t-61 164zM131 233q0 -72 35 -124.5t107 -52.5t106 52.5t34 124.5q0 73 -34 125.5t-106 52.5t-107 -52.5t-35 -125.5z" />
    <glyph glyph-name="oacute" unicode="&#xf3;" horiz-adv-x="545" 
d="M389 726l-121 -198h-65l94 198h92zM40 223q0 104 61 179t172 75q110 0 171 -71t61 -173q0 -101 -61 -172t-171 -71q-111 0 -172 69t-61 164zM131 233q0 -72 35 -124.5t107 -52.5t106 52.5t34 124.5q0 73 -34 125.5t-106 52.5t-107 -52.5t-35 -125.5z" />
    <glyph glyph-name="ocircumflex" unicode="&#xf4;" horiz-adv-x="545" 
d="M300 723l152 -208h-82l-101 127l-101 -127h-82l152 208h62zM40 223q0 104 61 179t172 75q110 0 171 -71t61 -173q0 -101 -61 -172t-171 -71q-111 0 -172 69t-61 164zM131 233q0 -72 35 -124.5t107 -52.5t106 52.5t34 124.5q0 73 -34 125.5t-106 52.5t-107 -52.5
t-35 -125.5z" />
    <glyph glyph-name="otilde" unicode="&#xf5;" horiz-adv-x="545" 
d="M93 529q0 57 27.5 96t88.5 39q32 0 71.5 -29t52.5 -29q22 0 33.5 12t13 23t1.5 28h53q0 -57 -27.5 -96t-88.5 -39q-32 0 -71.5 29t-52.5 29q-48 0 -48 -63h-53zM40 223q0 104 61 179t172 75q110 0 171 -71t61 -173q0 -101 -61 -172t-171 -71q-111 0 -172 69t-61 164z
M131 233q0 -72 35 -124.5t107 -52.5t106 52.5t34 124.5q0 73 -34 125.5t-106 52.5t-107 -52.5t-35 -125.5z" />
    <glyph glyph-name="odieresis" unicode="&#xf6;" horiz-adv-x="545" 
d="M117 635q0 25 15 39t41 14t40.5 -14t14.5 -39t-14.5 -39t-40.5 -14t-41 14t-15 39zM292 635q0 25 15 39t41 14t40.5 -14t14.5 -39t-14.5 -39t-40.5 -14t-41 14t-15 39zM40 223q0 104 61 179t172 75q110 0 171 -71t61 -173q0 -101 -61 -172t-171 -71q-111 0 -172 69
t-61 164zM131 233q0 -72 35 -124.5t107 -52.5t106 52.5t34 124.5q0 73 -34 125.5t-106 52.5t-107 -52.5t-35 -125.5z" />
    <glyph glyph-name="oslash" unicode="&#xf8;" 
 />
    <glyph glyph-name="ugrave" unicode="&#xf9;" horiz-adv-x="508" 
d="M237 721l94 -198h-65l-121 198h92zM132 191q0 -66 26 -95t78 -29q45 0 84 33.5t39 109.5v260h82v-470h-74v84q-21 -42 -61 -68t-88 -26q-84 0 -126 49t-42 134v297h82v-279z" />
    <glyph glyph-name="uacute" unicode="&#xfa;" horiz-adv-x="508" 
d="M371 729l-121 -198h-65l94 198h92zM132 191q0 -66 26 -95t78 -29q45 0 84 33.5t39 109.5v260h82v-470h-74v84q-21 -42 -61 -68t-88 -26q-84 0 -126 49t-42 134v297h82v-279z" />
    <glyph glyph-name="ucircumflex" unicode="&#xfb;" horiz-adv-x="508" 
d="M281 731l152 -208h-82l-101 127l-101 -127h-82l152 208h62zM132 191q0 -66 26 -95t78 -29q45 0 84 33.5t39 109.5v260h82v-470h-74v84q-21 -42 -61 -68t-88 -26q-84 0 -126 49t-42 134v297h82v-279z" />
    <glyph glyph-name="udieresis" unicode="&#xfc;" horiz-adv-x="508" 
d="M102 612q0 25 15 39t41 14t40.5 -14t14.5 -39t-14.5 -39t-40.5 -14t-41 14t-15 39zM277 612q0 25 15 39t41 14t40.5 -14t14.5 -39t-14.5 -39t-40.5 -14t-41 14t-15 39zM132 191q0 -66 26 -95t78 -29q45 0 84 33.5t39 109.5v260h82v-470h-74v84q-21 -42 -61 -68t-88 -26
q-84 0 -126 49t-42 134v297h82v-279z" />
    <glyph glyph-name="yacute" unicode="&#xfd;" horiz-adv-x="485" 
d="M352 725l-121 -198h-65l94 198h92zM233 -111q-28 -75 -72 -104.5t-87 -29.5q-53 0 -71 21l17 85q20 -17 53 -17q32 0 52.5 18.5t42.5 74.5l25 66l-178 467h86l131 -348l2 -10l1 3l2 7l131 348h84z" />
    <glyph glyph-name="thorn" unicode="&#xfe;" 
 />
    <glyph glyph-name="ydieresis" unicode="&#xff;" horiz-adv-x="485" 
d="M98 605q0 25 15 39t41 14t40.5 -14t14.5 -39t-14.5 -39t-40.5 -14t-41 14t-15 39zM273 605q0 25 15 39t41 14t40.5 -14t14.5 -39t-14.5 -39t-40.5 -14t-41 14t-15 39zM233 -111q-28 -75 -72 -104.5t-87 -29.5q-53 0 -71 21l17 85q20 -17 53 -17q32 0 52.5 18.5t42.5 74.5
l25 66l-178 467h86l131 -348l2 -10l1 3l2 7l131 348h84z" />
    <glyph glyph-name="OE" unicode="&#x152;" 
 />
    <glyph glyph-name="oe" unicode="&#x153;" 
 />
    <glyph glyph-name="Wcircumflex" unicode="&#x174;" horiz-adv-x="1053" 
d="M562 980l152 -208h-82l-101 127l-101 -127h-82l152 208h62zM48 740h90q12 -39 94 -298l80 -257q10 32 38 120.5t44 136.5l93 298h84q45 -150 152 -489l22 -66q42 142 140 449l35 106h90l-227 -740h-56l-198 593l-199 -593h-55z" />
    <glyph glyph-name="wcircumflex" unicode="&#x175;" horiz-adv-x="725" 
d="M392 722l152 -208h-82l-101 127l-101 -127h-82l152 208h62zM16 470h83l116 -335l115 335h66l115 -335l115 335h83l-167 -470h-61l-113 324l-5 19l-4 -18l-114 -325h-61z" />
    <glyph glyph-name="Ycircumflex" unicode="&#x176;" horiz-adv-x="702" 
d="M375 997l152 -208h-82l-101 127l-101 -127h-82l152 208h62zM352 397l209 343h101q-28 -45 -97 -153t-107 -168q-10 -15 -30 -47.5t-30 -47.5v-324h-91v324q-13 20 -60 95l-204 321h101z" />
    <glyph glyph-name="ycircumflex" unicode="&#x177;" horiz-adv-x="485" 
d="M274 728l152 -208h-82l-101 127l-101 -127h-82l152 208h62zM233 -111q-28 -75 -72 -104.5t-87 -29.5q-53 0 -71 21l17 85q20 -17 53 -17q32 0 52.5 18.5t42.5 74.5l25 66l-178 467h86l131 -348l2 -10l1 3l2 7l131 348h84z" />
    <glyph glyph-name="Ydieresis" unicode="&#x178;" horiz-adv-x="702" 
d="M210 847q0 25 15 39t41 14t40.5 -14t14.5 -39t-14.5 -39t-40.5 -14t-41 14t-15 39zM385 847q0 25 15 39t41 14t40.5 -14t14.5 -39t-14.5 -39t-40.5 -14t-41 14t-15 39zM352 397l209 343h101q-28 -45 -97 -153t-107 -168q-10 -15 -30 -47.5t-30 -47.5v-324h-91v324
q-13 20 -60 95l-204 321h101z" />
    <glyph glyph-name="circumflex" unicode="&#x2c6;" horiz-adv-x="348" 
d="M207 750l152 -208h-82l-101 127l-101 -127h-82l152 208h62z" />
    <glyph glyph-name="tilde" unicode="&#x2dc;" horiz-adv-x="371" 
d="M15 593q0 57 27.5 96t88.5 39q32 0 71.5 -29t52.5 -29q22 0 33.5 12t13 23t1.5 28h53q0 -57 -27.5 -96t-88.5 -39q-32 0 -71.5 29t-52.5 29q-48 0 -48 -63h-53z" />
    <glyph glyph-name="Wgrave" unicode="&#x1e80;" horiz-adv-x="1053" 
d="M517 981l94 -198h-65l-121 198h92zM48 740h90q12 -39 94 -298l80 -257q10 32 38 120.5t44 136.5l93 298h84q45 -150 152 -489l22 -66q42 142 140 449l35 106h90l-227 -740h-56l-198 593l-199 -593h-55z" />
    <glyph glyph-name="wgrave" unicode="&#x1e81;" horiz-adv-x="725" 
d="M312 740l94 -198h-65l-121 198h92zM16 470h83l116 -335l115 335h66l115 -335l115 335h83l-167 -470h-61l-113 324l-5 19l-4 -18l-114 -325h-61z" />
    <glyph glyph-name="Wacute" unicode="&#x1e82;" horiz-adv-x="1053" 
d="M614 983l-121 -198h-65l94 198h92zM48 740h90q12 -39 94 -298l80 -257q10 32 38 120.5t44 136.5l93 298h84q45 -150 152 -489l22 -66q42 142 140 449l35 106h90l-227 -740h-56l-198 593l-199 -593h-55z" />
    <glyph glyph-name="wacute" unicode="&#x1e83;" horiz-adv-x="725" 
d="M451 727l-121 -198h-65l94 198h92zM16 470h83l116 -335l115 335h66l115 -335l115 335h83l-167 -470h-61l-113 324l-5 19l-4 -18l-114 -325h-61z" />
    <glyph glyph-name="Wdieresis" unicode="&#x1e84;" horiz-adv-x="1053" 
d="M385 846q0 25 15 39t41 14t40.5 -14t14.5 -39t-14.5 -39t-40.5 -14t-41 14t-15 39zM560 846q0 25 15 39t41 14t40.5 -14t14.5 -39t-14.5 -39t-40.5 -14t-41 14t-15 39zM48 740h90q12 -39 94 -298l80 -257q10 32 38 120.5t44 136.5l93 298h84q45 -150 152 -489l22 -66
q42 142 140 449l35 106h90l-227 -740h-56l-198 593l-199 -593h-55z" />
    <glyph glyph-name="wdieresis" unicode="&#x1e85;" horiz-adv-x="725" 
d="M216 610q0 25 15 39t41 14t40.5 -14t14.5 -39t-14.5 -39t-40.5 -14t-41 14t-15 39zM391 610q0 25 15 39t41 14t40.5 -14t14.5 -39t-14.5 -39t-40.5 -14t-41 14t-15 39zM16 470h83l116 -335l115 335h66l115 -335l115 335h83l-167 -470h-61l-113 324l-5 19l-4 -18
l-114 -325h-61z" />
    <glyph glyph-name="Ygrave" unicode="&#x1ef2;" horiz-adv-x="702" 
d="M312 976l94 -198h-65l-121 198h92zM352 397l209 343h101q-28 -45 -97 -153t-107 -168q-10 -15 -30 -47.5t-30 -47.5v-324h-91v324q-13 20 -60 95l-204 321h101z" />
    <glyph glyph-name="ygrave" unicode="&#x1ef3;" horiz-adv-x="485" 
d="M228 714l94 -198h-65l-121 198h92zM233 -111q-28 -75 -72 -104.5t-87 -29.5q-53 0 -71 21l17 85q20 -17 53 -17q32 0 52.5 18.5t42.5 74.5l25 66l-178 467h86l131 -348l2 -10l1 3l2 7l131 348h84z" />
    <glyph glyph-name="endash" unicode="&#x2013;" horiz-adv-x="369" 
d="M-5 214v63h379v-63h-379z" />
    <glyph glyph-name="emdash" unicode="&#x2014;" horiz-adv-x="747" 
d="M-5 214v63h757v-63h-757z" />
    <glyph glyph-name="quoteleft" unicode="&#x2018;" horiz-adv-x="234" 
d="M191 522q0 -29 -20.5 -50t-50.5 -21q-45 0 -69 33q-19 25 -19 63q0 62 31 120q30 55 84 95l38 -43q-8 -7 -20 -19t-32.5 -45t-20.5 -61q1 0 3 0.5t3 0.5q36 0 54.5 -21.5t18.5 -51.5z" />
    <glyph glyph-name="quoteright" unicode="&#x2019;" horiz-adv-x="234" 
d="M42 691q0 29 20.5 50t50.5 21q45 0 69 -33q19 -25 19 -63q0 -62 -31 -120q-30 -55 -84 -95l-38 43q8 7 20 19t32 44.5t21 60.5h-6q-36 0 -54.5 21.5t-18.5 51.5z" />
    <glyph glyph-name="quotedblleft" unicode="&#x201c;" horiz-adv-x="453" 
d="M201 522q0 -29 -20.5 -50t-50.5 -21q-45 0 -69 33q-19 25 -19 63q0 62 31 120q30 55 84 95l38 -43q-8 -7 -20 -19t-32.5 -45t-20.5 -61q1 0 3 0.5t3 0.5q36 0 54.5 -21.5t18.5 -51.5zM415 522q0 -29 -20.5 -50t-50.5 -21q-45 0 -69 33q-19 25 -19 63q0 62 31 120
q30 55 84 95l38 -43q-8 -7 -20 -19t-32.5 -45t-20.5 -61q1 0 3 0.5t3 0.5q36 0 54.5 -21.5t18.5 -51.5z" />
    <glyph glyph-name="quotedblright" unicode="&#x201d;" horiz-adv-x="453" 
d="M42 691q0 29 20.5 50t50.5 21q45 0 69 -33q19 -25 19 -63q0 -62 -31 -120q-30 -55 -84 -95l-38 43q8 7 20 19t32 44.5t21 60.5h-6q-36 0 -54.5 21.5t-18.5 51.5zM256 691q0 29 20.5 50t50.5 21q45 0 69 -33q19 -25 19 -63q0 -62 -31 -120q-30 -55 -84 -95l-38 43
q8 7 20 19t32 44.5t21 60.5h-6q-36 0 -54.5 21.5t-18.5 51.5z" />
    <glyph glyph-name="ellipsis" unicode="&#x2026;" horiz-adv-x="909" 
d="M90 70q0 34 21.5 56.5t54.5 22.5q34 0 56.5 -22.5t22.5 -56.5q0 -33 -22.5 -54.5t-56.5 -21.5q-33 0 -54.5 21.5t-21.5 54.5zM377 70q0 34 21.5 56.5t54.5 22.5q34 0 56.5 -22.5t22.5 -56.5q0 -33 -22.5 -54.5t-56.5 -21.5q-33 0 -54.5 21.5t-21.5 54.5zM664 70
q0 34 21.5 56.5t54.5 22.5q34 0 56.5 -22.5t22.5 -56.5q0 -33 -22.5 -54.5t-56.5 -21.5q-33 0 -54.5 21.5t-21.5 54.5z" />
    <glyph glyph-name="guilsinglleft" unicode="&#x2039;" horiz-adv-x="334" 
d="M80 255l90 215h104l-90 -215l90 -214h-104z" />
    <glyph glyph-name="guilsinglright" unicode="&#x203a;" horiz-adv-x="334" 
d="M179 42h-104l90 214l-90 215h104l90 -215z" />
    <glyph glyph-name="fraction" unicode="&#x2044;" horiz-adv-x="500" 
d="M395 701h60l-350 -701h-60z" />
    </font>
</defs>
</svg>
